HIERARCHY
ROOT Hips
{
	OFFSET 0.00000 0.00000 0.00000
	CHANNELS 6 Xposition Yposition Zposition Zrotation Yrotation Xrotation 
	JOINT LHipJoint
	{
		OFFSET 0 0 0
		CHANNELS 3 Zrotation Yrotation Xrotation
		JOINT LeftHip
		{
			OFFSET 1.28366 -1.58472 0.87544
			CHANNELS 3 Zrotation Yrotation Xrotation
			JOINT LeftKnee
			{
				OFFSET 2.18587 -6.00562 0.00000
				CHANNELS 3 Zrotation Yrotation Xrotation
				JOINT LeftAnkle
				{
					OFFSET 2.39085 -6.56880 0.00000
					CHANNELS 3 Zrotation Yrotation Xrotation
					JOINT LeftToe
					{
						OFFSET 0.12003 -0.32979 2.03101
						CHANNELS 3 Zrotation Yrotation Xrotation
						End Site
						{
							OFFSET 0.00000 -0.00000 1.04074
						}
					}
				}
			}
		}
	}
	JOINT RHipJoint
	{
		OFFSET 0 0 0
		CHANNELS 3 Zrotation Yrotation Xrotation
		JOINT RightHip
		{
			OFFSET -1.21795 -1.58472 0.87544
			CHANNELS 3 Zrotation Yrotation Xrotation
			JOINT RightKnee
			{
				OFFSET -2.22714 -6.11902 0.00000
				CHANNELS 3 Zrotation Yrotation Xrotation
				JOINT RightAnkle
				{
					OFFSET -2.40306 -6.60235 0.00000
					CHANNELS 3 Zrotation Yrotation Xrotation
					JOINT RightToe
					{
						OFFSET -0.15519 -0.42640 1.91430
						CHANNELS 3 Zrotation Yrotation Xrotation
						End Site
						{
							OFFSET -0.00000 -0.00000 0.99082
						}
					}
				}
			}
		}
	}
	JOINT lowerback
	{
		OFFSET 0 0 0
		CHANNELS 3 Zrotation Yrotation Xrotation
		JOINT Chest
		{
			OFFSET 0.01180 1.76430 -0.06387
			CHANNELS 3 Zrotation Yrotation Xrotation
			JOINT Chest2
			{
				OFFSET -0.00388 1.74651 0.09536
				CHANNELS 3 Zrotation Yrotation Xrotation
				JOINT lowerneck
				{
					OFFSET 0 0 0
					CHANNELS 3 Zrotation Yrotation Xrotation
					JOINT Neck
					{
						OFFSET 0.04111 1.46174 0.14397
						CHANNELS 3 Zrotation Yrotation Xrotation
						JOINT Head
						{
							OFFSET 0.00502 1.44580 -0.31711
							CHANNELS 3 Zrotation Yrotation Xrotation
							End Site
							{
								OFFSET -0.00395 1.49251 -0.12327
							}
						}
					}
				}
				JOINT LeftCollar
				{
					OFFSET 0 0 0
					CHANNELS 3 Zrotation Yrotation Xrotation
					JOINT LeftShoulder
					{
						OFFSET 2.70917 1.34870 -0.15417
CHANNELS 3 Zrotation Xrotation Yrotation
						JOINT LeftElbow
						{
OFFSET 0 -4.466100 -0.000000
CHANNELS 3 Zrotation Xrotation Yrotation
							JOINT LeftWrist
							{
OFFSET 0 -3.414140 0.000000
CHANNELS 3 Zrotation Xrotation Yrotation
								JOINT lhand
								{
									OFFSET 0 0 0
CHANNELS 3 Zrotation Xrotation Yrotation
									JOINT LFingers
									{
OFFSET 0 -0.328300 0.000000
CHANNELS 3 Zrotation Xrotation Yrotation
										End Site
										{
OFFSET 0 -0.264680 0.000000
										}
									}
								}
								JOINT LThumb
								{
OFFSET 0 0.000000 0.000000
CHANNELS 3 Zrotation Xrotation Yrotation
									End Site
									{
OFFSET 0 -0.268720 0.268720
									}
								}
							}
						}
					}
				}
				JOINT RightCollar
				{
					OFFSET 0 0 0
					CHANNELS 3 Zrotation Yrotation Xrotation
					JOINT RightShoulder
					{
						OFFSET -3.06316 1.13725 -0.10883
CHANNELS 3 Zrotation Xrotation Yrotation
						JOINT RightElbow
						{
OFFSET 0 -4.404310 0.000000
CHANNELS 3 Zrotation Xrotation Yrotation
							JOINT RightWrist
							{
OFFSET 0 -3.046880 0.000000
CHANNELS 3 Zrotation Xrotation Yrotation
								JOINT rhand
								{
									OFFSET 0 0 0
CHANNELS 3 Zrotation Xrotation Yrotation
									JOINT RFingers
									{
OFFSET 0 -0.500490 0.000000
CHANNELS 3 Zrotation Xrotation Yrotation
										End Site
										{
OFFSET 0 -0.403510 0.000000
										}
									}
								}
								JOINT RThumb
								{
OFFSET 0 0.000000 0.000000
CHANNELS 3 Zrotation Xrotation Yrotation
									End Site
									{
OFFSET 0 -0.409670 0.409670
									}
								}
							}
						}
					}
				}
			}
		}
	}
}
MOTION
Frames: 11
Frame Time: 0.008333333333333333
39.341740 13.960808 -5.757840 9.913355 33.830864 10.719354 0.000000 0.000000 0.000000 -14.694338 1.088447 -11.600815 14.023355 19.120299 72.275115 -0.872746 -16.549645 9.456530 0.873729 -5.958961 -16.665455 0.000000 0.000000 0.000000 29.573250 13.321911 -37.990998 -7.799941 -15.970111 51.838863 -0.737498 -1.206048 -16.702559 -4.164856 -12.376671 37.077658 -5.486315 1.511692 -1.005499 -1.420566 1.871136 -7.023725 1.477410 1.239255 -6.905705 -8.660785 -10.591329 -13.030127 13.786931 -15.586191 16.675309 4.073066 -6.607590 9.196400 0.000000 0.000000 0.000000 74.017665 -18.961834 -65.308163 127.565900 -53.930642 91.869809 50.010883 -22.342998 9.585999 0.000000 0.000000 0.000000 -7.125000 0.000000 0.000000 15.745647 15.605339 11.373109 0.000000 0.000000 0.000000 -45.864257 -38.819539 42.569818 -72.484967 -58.807452 -44.892354 -43.708414 -35.235239 14.585257 0.000000 0.000000 0.000000 7.125000 0.000000 0.000000 -16.081279 49.090234 1.661176
40.220715 13.461273 -4.706715 2.400515 29.345964 4.046699 0.000000 0.000000 0.000000 -1.223907 -8.560972 -32.403676 22.700152 19.824213 97.917060 0.068088 -7.162111 -6.483484 0.578399 -4.868739 -13.534786 0.000000 0.000000 0.000000 38.156555 14.343327 -30.903085 -9.874478 -17.338596 59.068024 -1.544410 1.156169 -23.163196 -4.014778 -12.179960 36.371671 -1.271745 1.511481 2.676484 0.904328 2.050372 -6.321076 1.459625 1.139934 -8.205983 -8.169294 -9.979845 -12.189527 13.983896 -14.833226 16.104797 4.216079 -6.277968 8.734348 0.000000 0.000000 0.000000 63.373896 -26.908281 -62.473158 103.417734 -59.307096 71.592968 41.664655 -21.166236 -1.372979 0.000000 0.000000 0.000000 -7.125000 0.000000 0.000000 12.053080 31.666791 4.010321 0.000000 0.000000 0.000000 -52.083709 -30.457548 51.164356 -105.740876 -59.040732 -73.587867 -45.651181 -27.490676 0.645533 0.000000 0.000000 0.000000 7.125000 0.000000 0.000000 -15.048736 30.691128 -5.426727
40.982189 13.238908 -3.535689 1.058894 22.993462 3.269423 0.000000 0.000000 0.000000 1.013944 -12.962877 -51.281510 19.613306 19.994201 88.869082 0.658239 -2.982749 -14.601556 0.622770 -5.046073 -14.040881 0.000000 0.000000 0.000000 40.848009 13.431322 -23.983533 -10.706833 -17.788607 61.825876 -2.083448 4.162644 -26.317975 -3.313714 -11.186438 32.911156 -1.327658 1.477890 3.324070 0.962951 1.982944 -5.824816 1.550013 1.101062 -8.049605 -6.412594 -9.298101 -13.264837 13.597654 -14.324665 17.578155 3.849372 -5.858883 9.207893 0.000000 0.000000 0.000000 52.489749 -35.121205 -59.748218 75.729580 -59.212903 47.674457 30.581177 -34.522279 -12.392682 0.000000 0.000000 0.000000 -7.125000 0.000000 0.000000 3.078915 44.274696 0.058343 0.000000 0.000000 0.000000 -53.055879 -22.693232 60.850203 -125.032995 -54.811666 -89.810835 -47.773203 -23.321293 -14.170147 0.000000 0.000000 0.000000 7.125000 0.000000 0.000000 -13.256688 9.816388 -11.110211
41.612652 13.559029 -2.132942 1.361152 17.070039 3.899411 0.000000 0.000000 0.000000 -7.766590 -11.540373 -54.259633 8.007253 16.117414 52.576833 1.060582 1.621311 -20.103743 2.013539 -8.893511 -25.463380 0.000000 0.000000 0.000000 40.646461 10.338513 -13.110576 -8.607669 -16.548092 54.722528 -1.806443 7.738756 -24.100579 -3.069610 -10.806943 31.631519 -1.278688 1.356708 2.620468 0.783386 1.811475 -5.773874 1.369154 1.002641 -7.567172 -6.318199 -8.877813 -13.707463 11.939215 -13.524702 18.661634 3.375082 -5.595733 9.425885 0.000000 0.000000 0.000000 38.145448 -43.921735 -57.849995 48.229139 -52.249310 24.768672 12.229705 -55.460227 -23.011752 0.000000 0.000000 0.000000 -7.125000 0.000000 0.000000 -17.299758 52.633912 3.333435 0.000000 0.000000 0.000000 -54.987829 -17.811441 67.923839 -130.588112 -52.755530 -94.294764 -54.607162 -23.914413 -30.290917 0.000000 0.000000 0.000000 7.125000 0.000000 0.000000 -12.698722 -14.310040 -15.779138
42.198709 14.019300 -0.493846 1.026694 9.976196 3.957272 0.000000 0.000000 0.000000 -11.449822 -11.003450 -45.287320 2.747336 10.274145 29.869256 1.561990 -1.536661 -23.193374 2.478495 -9.797890 -28.325378 0.000000 0.000000 0.000000 38.781343 5.467205 -4.258714 -7.110834 -15.424448 49.292152 -0.326307 9.532992 -11.335368 -2.711110 -10.211966 29.665998 0.186546 1.207422 0.531258 0.462645 1.668016 -6.051751 0.272159 0.837288 -6.589599 -6.113780 -7.935908 -13.860902 10.993509 -12.265227 20.509812 3.209642 -5.035332 9.884351 0.000000 0.000000 0.000000 23.331261 -50.034123 -55.408993 28.790604 -39.828334 10.628434 -0.914782 -63.965216 -26.753389 0.000000 0.000000 0.000000 -7.125000 0.000000 0.000000 -32.039067 53.693821 7.443508 0.000000 0.000000 0.000000 -57.205097 -16.182214 74.430610 -131.324825 -52.447033 -94.880045 -65.948956 -35.361203 -36.235370 0.000000 0.000000 0.000000 7.125000 0.000000 0.000000 -16.178165 -29.143669 -22.572092
42.557132 14.490864 1.108426 3.861895 0.636120 5.406996 0.000000 0.000000 0.000000 -11.929675 -11.632823 -37.109383 2.601919 10.020947 29.044708 1.675625 -1.500547 -24.055095 1.183087 -6.902241 -19.426449 0.000000 0.000000 0.000000 33.952641 4.701213 -6.204359 -8.692336 -16.605398 55.019496 -0.008173 -1.020026 -2.414406 -1.124863 -6.731656 18.924566 -3.136634 1.516285 -0.773024 -0.541322 1.908951 -7.103640 1.082470 1.120215 -7.055608 -4.973399 -7.061173 -14.598072 10.149503 -11.340414 22.546564 2.858462 -4.526321 10.536529 0.000000 0.000000 0.000000 12.245158 -55.071890 -47.609821 18.065471 -28.239474 4.580965 -7.285855 -59.818730 -29.049116 0.000000 0.000000 0.000000 -7.125000 0.000000 0.000000 -39.617850 54.393292 10.373195 0.000000 0.000000 0.000000 -58.453727 -15.541236 78.827957 -130.408282 -52.829442 -94.151494 -70.042245 -42.312379 -37.792547 0.000000 0.000000 0.000000 7.125000 0.000000 0.000000 -17.526433 -34.146085 -24.965049
42.764482 14.762905 2.499087 5.216459 -5.500774 6.939217 0.000000 0.000000 0.000000 -14.016688 -8.790021 -33.815120 3.077199 10.817988 31.669595 1.946604 0.847504 -26.711336 0.899342 -6.044066 -16.912290 0.000000 0.000000 0.000000 33.670227 0.302317 -16.669520 -7.782325 -15.955673 51.772961 -0.283506 5.838668 -9.727762 -0.002787 -0.211560 0.581294 -3.948578 1.473542 -1.104967 -1.696817 1.758236 -7.284578 0.341887 1.050298 -7.047563 -5.543112 -7.460131 -14.574791 11.157344 -11.810214 20.611213 3.216837 -4.756833 9.988055 0.000000 0.000000 0.000000 11.461743 -58.284627 -40.287120 15.050912 -24.216952 3.246761 -10.698138 -58.138791 -29.793347 0.000000 0.000000 0.000000 -7.125000 0.000000 0.000000 -43.276338 54.319132 11.545972 0.000000 0.000000 0.000000 -57.141820 -13.826450 80.463458 -128.227079 -53.685920 -92.403525 -74.422905 -48.349047 -37.047317 0.000000 0.000000 0.000000 7.125000 0.000000 0.000000 -20.266784 -37.630774 -29.280284
42.988025 14.686651 3.794254 3.805868 -10.940680 6.747676 0.000000 0.000000 0.000000 -11.574105 -13.098517 -34.303669 6.060514 14.483843 45.218647 2.170693 -1.851143 -27.382798 1.709796 -8.231745 -23.421165 0.000000 0.000000 0.000000 37.833788 -6.231719 -18.906294 -5.903744 -14.334224 44.593854 -0.162103 3.525411 -7.204860 -0.033968 -1.178515 3.240332 -1.356522 1.969817 0.115147 -1.226559 2.511167 -6.371269 -0.668355 1.276848 -6.688440 -7.022796 -8.479674 -13.897122 10.741056 -12.464880 17.671706 3.220430 -5.333721 8.964273 0.000000 0.000000 0.000000 20.023337 -58.394747 -41.531718 18.090174 -28.270508 4.592931 -7.426151 -60.588416 -32.791705 0.000000 0.000000 0.000000 -7.125000 0.000000 0.000000 -43.161846 57.256852 14.796139 0.000000 0.000000 0.000000 -58.286004 -13.830917 82.876863 -124.665179 -54.932017 -89.509974 -76.519115 -52.231491 -35.897747 0.000000 0.000000 0.000000 7.125000 0.000000 0.000000 -22.102754 -38.845692 -32.139637
42.984659 14.346770 5.163085 4.518104 -17.707553 7.245070 0.000000 0.000000 0.000000 -7.656985 -17.764936 -41.181187 8.974416 16.791194 56.001523 1.976687 -5.934561 -25.369572 1.882483 -8.616528 -24.603251 0.000000 0.000000 0.000000 35.961644 -4.833527 -8.289140 -4.756405 -13.104092 39.759504 -0.441205 2.720706 -11.909104 -0.015517 -0.778218 2.138954 -1.104893 2.713506 0.809615 -1.846727 3.451215 -6.944818 -1.573101 1.697639 -7.657461 -8.339732 -9.299892 -11.748267 11.829439 -13.482121 15.752277 3.728989 -5.939759 8.206793 0.000000 0.000000 0.000000 35.414225 -54.934590 -43.691450 28.845064 -39.869404 10.666176 7.473038 -52.526114 -43.235123 0.000000 0.000000 0.000000 -7.125000 0.000000 0.000000 -43.193587 68.906159 26.488513 0.000000 0.000000 0.000000 -53.680559 -14.310875 86.962288 -110.720331 -58.307047 -77.841574 -75.245516 -50.328679 -37.855450 0.000000 0.000000 0.000000 7.125000 0.000000 0.000000 -20.289898 -39.086351 -29.350201
42.797213 13.988830 6.663016 3.358968 -26.091923 8.437274 0.000000 0.000000 0.000000 -4.041255 -18.707591 -40.514458 7.576148 15.798225 51.020736 1.263488 -4.446051 -20.245815 2.638637 -10.085132 -29.253428 0.000000 0.000000 0.000000 34.432817 0.243585 -9.420180 -8.628310 -16.549838 54.776328 -0.021119 -0.718815 -2.910956 -0.008445 0.413159 -1.135502 -0.684727 3.464411 -0.227688 -1.734584 4.488894 -6.977046 -1.689938 2.190739 -7.050583 -8.656020 -9.934909 -11.565153 13.566018 -14.549375 14.585812 4.208030 -6.365898 8.078448 0.000000 0.000000 0.000000 51.989350 -45.139895 -42.367180 58.067885 -55.738722 32.746068 29.896759 -29.303182 -47.692670 0.000000 0.000000 0.000000 -7.125000 0.000000 0.000000 -30.197793 80.523110 25.094355 0.000000 0.000000 0.000000 -42.715728 -12.412382 87.050442 -78.721110 -59.496692 -50.249920 -72.990623 -45.286125 -37.730106 0.000000 0.000000 0.000000 7.125000 0.000000 0.000000 -19.114240 -36.807248 -27.493704
42.563704 13.540202 7.998649 10.573361 -37.717195 1.352756 0.000000 0.000000 0.000000 -14.339403 -11.763511 -33.890987 9.572549 17.162122 58.049523 2.048989 -0.733649 -26.885425 2.959402 -10.629089 -31.038863 0.000000 0.000000 0.000000 23.232600 10.324575 -26.827223 -20.147996 -19.993270 90.433066 0.040999 3.867890 0.129898 -0.392947 -4.024504 11.145669 -6.509669 4.292982 4.028158 -2.957431 4.982078 -5.684745 -0.087145 2.716717 -8.579420 -7.952708 -9.614056 -11.977733 13.411315 -14.021159 13.426097 4.105306 -6.118290 7.646265 0.000000 0.000000 0.000000 66.016605 -32.586631 -43.138053 102.222480 -59.410878 70.562804 40.242597 -11.718226 -37.762429 0.000000 0.000000 0.000000 -7.125000 0.000000 0.000000 11.088216 75.164074 -7.889323 0.000000 0.000000 0.000000 -29.932095 -19.549750 83.716700 -43.164320 -49.810909 -20.833935 -65.537925 -39.775711 -36.082959 0.000000 0.000000 0.000000 7.125000 0.000000 0.000000 -16.038781 -28.652075 -22.320318
